<?xml version="1.0" encoding="UTF-8" standalone="no"?>
<svg
   version="1.1"
   width="512"
   height="512"
   x="0"
   y="0"
   viewBox="0 0 64 64"
   style="enable-background:new 0 0 512 512"
   xml:space="preserve"
   class=""
   id="svg38"
   sodipodi:docname="recycle-bin - Copy.svg"
   inkscape:version="1.2 (dc2aedaf03, 2022-05-15)"
   xmlns:inkscape="http://www.inkscape.org/namespaces/inkscape"
   xmlns:sodipodi="http://sodipodi.sourceforge.net/DTD/sodipodi-0.dtd"
   xmlns="http://www.w3.org/2000/svg"
   xmlns:svg="http://www.w3.org/2000/svg"><defs
     id="defs42" /><sodipodi:namedview
     id="namedview40"
     pagecolor="#ffffff"
     bordercolor="#000000"
     borderopacity="0.25"
     inkscape:showpageshadow="2"
     inkscape:pageopacity="0.0"
     inkscape:pagecheckerboard="0"
     inkscape:deskcolor="#d1d1d1"
     showgrid="false"
     inkscape:zoom="0.92187498"
     inkscape:cx="221.28814"
     inkscape:cy="241.89831"
     inkscape:window-width="1440"
     inkscape:window-height="837"
     inkscape:window-x="-8"
     inkscape:window-y="-8"
     inkscape:window-maximized="1"
     inkscape:current-layer="g205" /><g
     transform="matrix(1,0,0,1,0,3.552713678800501e-15)"
     id="g36"><g
       id="g205"
       transform="rotate(45.281555,24.673505,17.55844)"><g
         id="g369"
         transform="matrix(0.99643728,0.0035979,0.0035979,0.99636656,4.42214,3.6784073)"><path
           d="m 40.072663,-2.4773682 c -0.512556,-0.515182 -1.559913,-0.298678 -2.339594,0.483628 L 15.14346,20.671276 c -0.779681,0.782306 -0.996185,1.83392 -0.483629,2.349101 l 1.855795,1.866303 25.413003,-25.49857622 z"
           fill="#fd3a84"
           data-original="#57a5ff"
           class=""
           id="path14"
           style="stroke-width:0.811144" /><path
           d="m 36.629156,2.4800628 -21.22184,21.2918172 1.175548,1.181381 25.413894,-25.49769422 -1.8761,-1.88540998 c -0.518117,-0.520688 -1.570003,-0.308669 -2.349711,0.473611 l -0.313481,0.314514 c 0.90488,0.90936998 0.534432,2.754545 -0.82831,4.121781 z"
           fill="#ff126c"
           opacity="0.12"
           data-original="#303030"
           class=""
           id="path18"
           style="stroke-width:0.8155" /><path
           d="m 21.618013,15.823834 -2.121,-2.121 c -1.17,-1.169 -1.17,-3.073 0,-4.2430002 l 7.071,-7.071 c 1.169,-1.17 3.072,-1.171 4.243,0 l 2.121,2.121 -1.414,1.414 -2.121,-2.121 c -0.39,-0.39 -1.025,-0.389 -1.415,0 l -7.071,7.0710002 c -0.39,0.39 -0.39,1.024 0,1.415 l 2.121,2.121 z"
           fill="#fd3a84"
           data-original="#57a5ff"
           class=""
           id="path24" /></g></g></g></svg>
