<?xml version="1.0" encoding="UTF-8" standalone="no"?>
<svg
   version="1.1"
   width="512"
   height="440"
   x="0"
   y="0"
   viewBox="0 0 64 55"
   xml:space="preserve"
   class=""
   id="svg38"
   sodipodi:docname="bin.svg"
   inkscape:version="1.2 (dc2aedaf03, 2022-05-15)"
   xmlns:inkscape="http://www.inkscape.org/namespaces/inkscape"
   xmlns:sodipodi="http://sodipodi.sourceforge.net/DTD/sodipodi-0.dtd"
   xmlns="http://www.w3.org/2000/svg"
   xmlns:svg="http://www.w3.org/2000/svg"><defs
     id="defs42" /><sodipodi:namedview
     id="namedview40"
     pagecolor="#ffffff"
     bordercolor="#000000"
     borderopacity="0.25"
     inkscape:showpageshadow="2"
     inkscape:pageopacity="0.0"
     inkscape:pagecheckerboard="0"
     inkscape:deskcolor="#d1d1d1"
     showgrid="false"
     inkscape:zoom="0.65186405"
     inkscape:cx="148.037"
     inkscape:cy="293.00588"
     inkscape:window-width="1440"
     inkscape:window-height="837"
     inkscape:window-x="-8"
     inkscape:window-y="-8"
     inkscape:window-maximized="1"
     inkscape:current-layer="g205" /><g
     id="g36"><path
       d="m 18.771,51.789596 c 0.131,0.995 0.979,1.739 1.983,1.739 h 22.492 c 1.004,0 1.852,-0.744 1.983,-1.739 l 3.455,-26.261 1.316,-10 -35.721139,0.01198 c 4.626344,37.468774 2.910515,24.227616 4.492139,36.24902 z"
       fill="#fd3a84"
       data-original="#57a5ff"
       class=""
       id="path2"
       sodipodi:nodetypes="cssccccc" /><path
       d="m 30,23.528596 v 22 c 0,1.105 0.895,2 2,2 1.105,0 2,-0.895 2,-2 v -22 c 0,-1.105 -0.895,-2 -2,-2 -1.105,0 -2,0.895 -2,2 z"
       fill="#ffcbdf"
       data-original="#f2f8ff"
       class=""
       id="path4" /><path
       d="m 22,23.528596 v 22 c 0,1.105 0.895,2 2,2 1.105,0 2,-0.895 2,-2 v -22 c 0,-1.105 -0.895,-2 -2,-2 -1.105,0 -2,0.895 -2,2 z"
       fill="#ffcbdf"
       data-original="#f2f8ff"
       class=""
       id="path6" /><path
       d="m 38,23.528596 v 22 c 0,1.105 0.895,2 2,2 1.105,0 2,-0.895 2,-2 v -22 c 0,-1.105 -0.895,-2 -2,-2 -1.105,0 -2,0.895 -2,2 z"
       fill="#ffcbdf"
       data-original="#f2f8ff"
       class=""
       id="path8" /><path
       d="m 45.229,51.789596 0.391,-2.973 c -12.834,-4.507 -21.688,-17.063 -20.897,-31.305 l 0.11,-1.983 -0.235174,0.767031 c -5.565121,8.755052 -7.199474,25.060926 -5.826826,35.493969 0.131,0.995 0.979,1.739 1.983,1.739 h 22.492 c 1.004,0 1.852,-0.744 1.983,-1.739 z"
       fill="#ff126c"
       opacity="0.12"
       data-original="#303030"
       class=""
       id="path16"
       sodipodi:nodetypes="ccccccssc" /><g
       id="g205"
       transform="rotate(45.281555,24.673505,17.55844)" /></g></svg>
