<?xml version="1.0" encoding="UTF-8" standalone="no"?>
<svg
   version="1.1"
   width="512"
   height="512"
   x="0"
   y="0"
   viewBox="0 0 510 510"
   style="enable-background:new 0 0 512 512"
   xml:space="preserve"
   class=""
   id="svg111"
   sodipodi:docname="pen.svg"
   inkscape:version="1.2 (dc2aedaf03, 2022-05-15)"
   xmlns:inkscape="http://www.inkscape.org/namespaces/inkscape"
   xmlns:sodipodi="http://sodipodi.sourceforge.net/DTD/sodipodi-0.dtd"
   xmlns:xlink="http://www.w3.org/1999/xlink"
   xmlns="http://www.w3.org/2000/svg"
   xmlns:svg="http://www.w3.org/2000/svg"><defs
     id="defs115" /><sodipodi:namedview
     id="namedview113"
     pagecolor="#ffffff"
     bordercolor="#000000"
     borderopacity="0.25"
     inkscape:showpageshadow="2"
     inkscape:pageopacity="0.0"
     inkscape:pagecheckerboard="0"
     inkscape:deskcolor="#d1d1d1"
     showgrid="false"
     inkscape:zoom="0.4609375"
     inkscape:cx="256"
     inkscape:cy="256"
     inkscape:window-width="1440"
     inkscape:window-height="837"
     inkscape:window-x="-8"
     inkscape:window-y="-8"
     inkscape:window-maximized="1"
     inkscape:current-layer="g107" /><g
     id="g109"><linearGradient
       id="SVGID_1_"
       gradientTransform="matrix(.707 .707 -.629 .629 -1018.779 -1522.46)"
       gradientUnits="userSpaceOnUse"
       x1="2075.51"
       x2="2255.724"
       y1="661.449"
       y2="661.449"><stop
         offset="0"
         stop-color="#fee903"
         id="stop2" /><stop
         offset=".2305"
         stop-color="#fee505"
         id="stop4" /><stop
         offset=".4171"
         stop-color="#fedb0b"
         id="stop6" /><stop
         offset=".5884"
         stop-color="#feca15"
         id="stop8" /><stop
         offset=".7504"
         stop-color="#feb223"
         id="stop10" /><stop
         offset=".9046"
         stop-color="#fe9435"
         id="stop12" /><stop
         offset="1"
         stop-color="#fe7d43"
         id="stop14" /></linearGradient><linearGradient
       id="lg1"><stop
         offset="0"
         stop-color="#ffe177"
         id="stop17" /><stop
         offset=".5725"
         stop-color="#feb137"
         id="stop19" /><stop
         offset="1"
         stop-color="#fe646f"
         id="stop21" /></linearGradient><linearGradient
       id="SVGID_2_"
       gradientTransform="matrix(.707 .707 -.629 .629 -1018.779 -1522.46)"
       gradientUnits="userSpaceOnUse"
       x1="2075.51"
       x2="2255.724"
       xlink:href="#lg1"
       y1="661.449"
       y2="661.449" /><linearGradient
       id="SVGID_3_"
       gradientTransform="matrix(.707 .707 -.629 .629 -1018.779 -1522.46)"
       gradientUnits="userSpaceOnUse"
       x1="2056.651"
       x2="2238.699"
       xlink:href="#lg1"
       y1="660.377"
       y2="660.377" /><linearGradient
       id="SVGID_4_"
       gradientTransform="matrix(.707 .707 -.629 .629 -1018.779 -1522.46)"
       gradientUnits="userSpaceOnUse"
       x1="1977.754"
       x2="2248.395"
       xlink:href="#lg1"
       y1="661.45"
       y2="661.45" /><linearGradient
       id="SVGID_5_"
       gradientTransform="matrix(.707 .707 -.629 .629 -1018.779 -1522.46)"
       gradientUnits="userSpaceOnUse"
       x1="2012.437"
       x2="2220.388"
       xlink:href="#lg1"
       y1="661.449"
       y2="661.449" /><linearGradient
       id="SVGID_6_"
       gradientUnits="userSpaceOnUse"
       x1="123.736"
       x2="486.951"
       y1="193.424"
       y2="193.424"><stop
         offset="0"
         stop-color="#537983"
         id="stop28" /><stop
         offset="1"
         stop-color="#3e5959"
         id="stop30" /></linearGradient><linearGradient
       id="SVGID_7_"
       gradientUnits="userSpaceOnUse"
       x1="32.59"
       x2="448.758"
       y1="193.426"
       y2="193.426"><stop
         offset="0"
         stop-color="#537983"
         id="stop33" /><stop
         offset="1"
         stop-color="#384949"
         id="stop35" /></linearGradient><linearGradient
       id="lg2"><stop
         offset="0"
         stop-color="#f9f3f1"
         id="stop38" /><stop
         offset=".5725"
         stop-color="#efe2dd"
         id="stop40" /><stop
         offset="1"
         stop-color="#cdbfba"
         id="stop42" /></linearGradient><linearGradient
       id="SVGID_8_"
       gradientUnits="userSpaceOnUse"
       x1="116.502"
       x2="255.036"
       xlink:href="#lg2"
       y1="329.708"
       y2="329.708" /><linearGradient
       id="SVGID_9_"
       gradientUnits="userSpaceOnUse"
       x1="39.083"
       x2="223.749"
       xlink:href="#lg2"
       y1="329.708"
       y2="329.708" /><linearGradient
       id="SVGID_10_"
       gradientUnits="userSpaceOnUse"
       x1="124.001"
       x2="259.972"
       y1="70.413"
       y2="70.413"><stop
         offset="0"
         stop-color="#7acaa6"
         id="stop47" /><stop
         offset=".5725"
         stop-color="#09a76d"
         id="stop49" /><stop
         offset="1"
         stop-color="#026841"
         id="stop51" /></linearGradient><linearGradient
       id="SVGID_11_"
       gradientUnits="userSpaceOnUse"
       x1="37.547"
       x2="168.668"
       y1="204.066"
       y2="204.066"><stop
         offset="0"
         stop-color="#6bd9e7"
         id="stop54" /><stop
         offset=".5725"
         stop-color="#26a6fe"
         id="stop56" /><stop
         offset="1"
         stop-color="#0172fb"
         id="stop58" /></linearGradient><linearGradient
       id="lg3"><stop
         offset="0"
         stop-color="#fdb4ba"
         id="stop61" /><stop
         offset=".5725"
         stop-color="#bd80e1"
         id="stop63" /><stop
         offset="1"
         stop-color="#9857bd"
         id="stop65" /></linearGradient><linearGradient
       id="SVGID_12_"
       gradientUnits="userSpaceOnUse"
       x1="252.192"
       x2="527.642"
       xlink:href="#lg3"
       y1="395.879"
       y2="395.879" /><linearGradient
       id="SVGID_13_"
       gradientUnits="userSpaceOnUse"
       x1="170.21"
       x2="489.103"
       xlink:href="#lg3"
       y1="481.474"
       y2="481.474" /><linearGradient
       id="SVGID_14_"
       gradientUnits="userSpaceOnUse"
       x1="170.21"
       x2="489.103"
       xlink:href="#lg3"
       y1="386.848"
       y2="386.848" /><g
       id="g107"><circle
         cx="171.029"
         cy="70.413"
         fill="url(#SVGID_10_)"
         r="55.715"
         data-original="url(#SVGID_10_)"
         id="circle95" /><circle
         cx="74.82"
         cy="204.066"
         fill="url(#SVGID_11_)"
         r="41.369"
         data-original="url(#SVGID_11_)"
         id="circle97" /><path
         d="m408.038 299.461c-42.061.102-77.133 29.922-85.345 69.572-1.435 6.931-6.498 12.575-13.189 14.883-21.886 7.55-37.597 28.346-37.534 52.812.078 30.259 24.832 55.233 55.089 55.565 15.404.169 29.383-5.917 39.563-15.873 5.036-4.925 12.324-6.92 19.131-5.111 7.179 1.908 14.722 2.925 22.502 2.925 48.262 0 87.386-39.124 87.387-87.386.001-48.302-39.301-87.505-87.604-87.387z"
         fill="url(#SVGID_12_)"
         data-original="url(#SVGID_12_)"
         id="path99" /><g
         id="g105"><path
           d="m368.484 474.235c-7.78 0-15.323-1.017-22.502-2.925-6.807-1.809-14.095.186-19.131 5.111-5.385 5.266-11.84 9.434-18.998 12.182 5.988 2.31 12.458 3.617 19.206 3.691 15.404.169 29.383-5.917 39.563-15.873.835-.816 1.736-1.544 2.683-2.196-.274.002-.546.01-.821.01z"
           fill="url(#SVGID_13_)"
           data-original="url(#SVGID_13_)"
           id="path101" /><path
           d="m408.038 299.461c-6.765.016-13.345.811-19.666 2.283 38.646 9.016 67.5 43.718 67.499 85.106-.001 41.421-28.82 76.109-67.501 85.111 6.388 1.487 13.044 2.275 19.885 2.275 48.262 0 87.386-39.124 87.387-87.386.001-48.305-39.301-87.507-87.604-87.389z"
           fill="url(#SVGID_14_)"
           data-original="url(#SVGID_14_)"
           id="path103" /></g></g></g></svg>
