<?xml version="1.0" encoding="UTF-8" standalone="no"?>
<svg
   version="1.1"
   width="436.14255"
   height="344.87305"
   x="0"
   y="0"
   viewBox="0 0 349.51799 276.37601"
   xml:space="preserve"
   class=""
   id="svg46"
   sodipodi:docname="history.svg"
   inkscape:version="1.2 (dc2aedaf03, 2022-05-15)"
   xmlns:inkscape="http://www.inkscape.org/namespaces/inkscape"
   xmlns:sodipodi="http://sodipodi.sourceforge.net/DTD/sodipodi-0.dtd"
   xmlns="http://www.w3.org/2000/svg"
   xmlns:svg="http://www.w3.org/2000/svg"><defs
     id="defs50">
	
	
</defs><sodipodi:namedview
     id="namedview48"
     pagecolor="#ffffff"
     bordercolor="#000000"
     borderopacity="0.25"
     inkscape:showpageshadow="2"
     inkscape:pageopacity="0.0"
     inkscape:pagecheckerboard="0"
     inkscape:deskcolor="#d1d1d1"
     showgrid="false"
     inkscape:zoom="0.4609375"
     inkscape:cx="107.38983"
     inkscape:cy="121.49153"
     inkscape:window-width="1440"
     inkscape:window-height="837"
     inkscape:window-x="-8"
     inkscape:window-y="-8"
     inkscape:window-maximized="1"
     inkscape:current-layer="g8" /><g
     id="g44"
     transform="translate(0,-107.025)">
<g
   id="g8">
		
		<path
   d="m 349.518,333.246 v 18.808 c 0,17.312 -14.035,31.347 -31.347,31.347 H 31.347 C 14.035,383.401 0,369.366 0,352.054 v -43.886 l 86.204,-62.694 c 13.668,-10.37 32.794,-9.491 45.453,2.09 l 57.469,50.155 c 12.046,10.215 29.238,11.683 42.841,3.657 l 117.551,-68.963 z"
   fill="#00ceb4"
   data-original="#00ceb4"
   id="path4" />
		<path
   d="m 349.518,138.372 v 94.041 l -117.551,68.963 c -13.603,8.026 -30.795,6.558 -42.841,-3.657 l -57.469,-50.155 c -12.659,-11.58 -31.785,-12.46 -45.453,-2.09 L 0,308.168 V 138.372 C 0,121.06 14.035,107.025 31.347,107.025 h 286.824 c 17.313,10e-4 31.347,14.035 31.347,31.347 z"
   fill="#00efd1"
   data-original="#00efd1"
   id="path6" />
	</g><circle
   cx="208.98"
   cy="192.707"
   r="33.437"
   fill="#d4e1f4"
   data-original="#d4e1f4"
   id="circle10" />
<g
   id="g14">
</g>
<g
   id="g16">
</g>
<g
   id="g18">
</g>
<g
   id="g20">
</g>
<g
   id="g22">
</g>
<g
   id="g24">
</g>
<g
   id="g26">
</g>
<g
   id="g28">
</g>
<g
   id="g30">
</g>
<g
   id="g32">
</g>
<g
   id="g34">
</g>
<g
   id="g36">
</g>
<g
   id="g38">
</g>
<g
   id="g40">
</g>
<g
   id="g42">
</g>
</g></svg>
