<?xml version="1.0" encoding="UTF-8" standalone="no"?>
<svg
   version="1.1"
   width="512"
   height="512"
   x="0"
   y="0"
   viewBox="0 0 469.333 469.333"
   xml:space="preserve"
   class=""
   id="svg80"
   sodipodi:docname="paint-bucket-colors.svg"
   style="enable-background:new 0 0 512 512"
   inkscape:version="1.2 (dc2aedaf03, 2022-05-15)"
   xmlns:inkscape="http://www.inkscape.org/namespaces/inkscape"
   xmlns:sodipodi="http://sodipodi.sourceforge.net/DTD/sodipodi-0.dtd"
   xmlns="http://www.w3.org/2000/svg"
   xmlns:svg="http://www.w3.org/2000/svg"><defs
     id="defs84" /><sodipodi:namedview
     id="namedview82"
     pagecolor="#ffffff"
     bordercolor="#000000"
     borderopacity="0.25"
     inkscape:showpageshadow="2"
     inkscape:pageopacity="0.0"
     inkscape:pagecheckerboard="0"
     inkscape:deskcolor="#d1d1d1"
     showgrid="false"
     inkscape:zoom="0.74945314"
     inkscape:cx="198.81163"
     inkscape:cy="248.18096"
     inkscape:window-width="1440"
     inkscape:window-height="837"
     inkscape:window-x="-8"
     inkscape:window-y="-8"
     inkscape:window-maximized="1"
     inkscape:current-layer="g78" /><g
     id="g78">

































<g
   id="g1669"
   transform="matrix(1.9937717,0,0,1.9937717,0,-339.20807)"><path
     d="m 232.078,213.333 c -12.002,0 -23.513,4.768 -32,13.255 l -16.157,16.157 c -8.487,8.487 -19.998,13.255 -32,13.255 h -5.176 c -12.002,0 -23.513,4.768 -32,13.255 l -16.157,16.157 c -8.487,8.487 -19.998,13.255 -32,13.255 H 21.333 C 9.551,298.667 0,308.218 0,320 c 0,0 0,0 0,0 0,11.782 9.551,21.333 21.333,21.333 H 128 c 58.91,0 106.667,-47.756 106.667,-106.667 v -21.333 h -2.589 z"
     fill="#d80e70"
     data-original="#d80e70"
     id="path22" /><path
     d="m 225.661,277.333 h -31.143 c -14.618,0 -27.981,8.259 -34.518,21.333 C 153.463,311.741 140.1,320 125.482,320 H 32 c -5.891,0 -10.667,4.776 -10.667,10.667 0,5.891 4.776,10.667 10.667,10.667 h 96 c 42.382,-0.023 80.725,-25.15 97.661,-64.001 z"
     fill="#ac0068"
     data-original="#ac0068"
     id="path30" /><g
     id="g42">
	
	
	<path
   d="m 190.91799,251.27222 12.497,-12.497 c 5.891,-5.891 15.442,-5.891 21.333,0 0,0 0,0 0,0 5.891,5.891 5.891,15.442 0,21.333 l -12.497,12.497 c -5.891,5.891 -15.442,5.891 -21.333,0 -5.891,-5.89 -5.891,-15.442 0,-21.333 z"
   fill="#e14691"
   data-original="#e14691"
   id="path38" />
	<circle
   cx="138.66701"
   cy="287.99701"
   r="10.667"
   fill="#e14691"
   data-original="#e14691"
   id="circle40" />
</g><g
     id="g48">
</g><g
     id="g50">
</g><g
     id="g52">
</g><g
     id="g54">
</g><g
     id="g56">
</g><g
     id="g58">
</g><g
     id="g60">
</g><g
     id="g62">
</g><g
     id="g64">
</g><g
     id="g66">
</g><g
     id="g68">
</g><g
     id="g70">
</g><g
     id="g72">
</g><g
     id="g74">
</g><g
     id="g76">
</g></g>
</g></svg>
