<?xml version="1.0" encoding="UTF-8" standalone="no"?>
<svg
   version="1.1"
   width="512"
   height="512"
   x="0"
   y="0"
   viewBox="0 0 64 64"
   style="enable-background:new 0 0 512 512"
   xml:space="preserve"
   class=""
   id="svg38"
   sodipodi:docname="trash.svg"
   inkscape:version="1.2 (dc2aedaf03, 2022-05-15)"
   xmlns:inkscape="http://www.inkscape.org/namespaces/inkscape"
   xmlns:sodipodi="http://sodipodi.sourceforge.net/DTD/sodipodi-0.dtd"
   xmlns="http://www.w3.org/2000/svg"
   xmlns:svg="http://www.w3.org/2000/svg"><defs
     id="defs42" /><sodipodi:namedview
     id="namedview40"
     pagecolor="#ffffff"
     bordercolor="#000000"
     borderopacity="0.25"
     inkscape:showpageshadow="2"
     inkscape:pageopacity="0.0"
     inkscape:pagecheckerboard="0"
     inkscape:deskcolor="#d1d1d1"
     showgrid="false"
     inkscape:zoom="0.4609375"
     inkscape:cx="254.91525"
     inkscape:cy="256"
     inkscape:window-width="1440"
     inkscape:window-height="837"
     inkscape:window-x="-8"
     inkscape:window-y="-8"
     inkscape:window-maximized="1"
     inkscape:current-layer="g36" /><g
     transform="matrix(1,0,0,1,0,3.552713678800501e-15)"
     id="g36"><path
       d="m30 17 4 2h5l-2-5-4-1z"
       fill="#df2e72"
       data-original="#004fa8"
       class=""
       id="path10" /><path
       d="m48 10-5 1v2l1 4 8-1-3-4z"
       fill="#df2e72"
       data-original="#004fa8"
       class=""
       id="path12" /><path
       d="m49 12-1-2-1.818.364.818 1.636 3 4-6.061.758.061.242 8-1z"
       fill="#ff126c"
       opacity=".12"
       data-original="#303030"
       class=""
       id="path20" /><path
       d="m35 15 1.6 4h2.4l-2-5-4-1-.947 1.263z"
       fill="#ff126c"
       opacity=".12"
       data-original="#303030"
       class=""
       id="path22" /><g
       fill="#004fa8"
       id="g34"><path
         d="m44 2h2v2h-2z"
         fill="#df2e72"
         data-original="#004fa8"
         class=""
         id="path26" /><path
         d="m54.022 9.793-1.219-1.586c2.667-2.05 6.089-2.848 9.393-2.188l-.392 1.961c-2.734-.545-5.571.115-7.782 1.813z"
         fill="#df2e72"
         data-original="#004fa8"
         class=""
         id="path28" /><path
         d="m57 12h2v2h-2z"
         fill="#df2e72"
         data-original="#004fa8"
         class=""
         id="path30" /><path
         d="m50 7h-2c0-2.757 2.243-5 5-5v2c-1.654 0-3 1.346-3 3z"
         fill="#df2e72"
         data-original="#004fa8"
         class=""
         id="path32" /></g></g></svg>
