<?xml version="1.0" encoding="UTF-8" standalone="no"?>
<svg
   version="1.1"
   width="512"
   height="512"
   x="0"
   y="0"
   viewBox="0 0 418.133 418.133"
   style="enable-background:new 0 0 512 512"
   xml:space="preserve"
   class=""
   id="svg16"
   sodipodi:docname="upload.svg"
   inkscape:version="1.2 (dc2aedaf03, 2022-05-15)"
   xmlns:inkscape="http://www.inkscape.org/namespaces/inkscape"
   xmlns:sodipodi="http://sodipodi.sourceforge.net/DTD/sodipodi-0.dtd"
   xmlns="http://www.w3.org/2000/svg"
   xmlns:svg="http://www.w3.org/2000/svg"><defs
     id="defs20" /><sodipodi:namedview
     id="namedview18"
     pagecolor="#ffffff"
     bordercolor="#000000"
     borderopacity="0.25"
     inkscape:showpageshadow="2"
     inkscape:pageopacity="0.0"
     inkscape:pagecheckerboard="0"
     inkscape:deskcolor="#d1d1d1"
     showgrid="false"
     inkscape:zoom="0.4609375"
     inkscape:cx="261.42373"
     inkscape:cy="256"
     inkscape:window-width="1440"
     inkscape:window-height="837"
     inkscape:window-x="-8"
     inkscape:window-y="-8"
     inkscape:window-maximized="1"
     inkscape:current-layer="g14" /><g
     id="g14"><g
       opacity="0.2"
       id="g6"
       style="fill:#6a859a;fill-opacity:1"><path
         d="M 219.735,305.066 172.309,257.64 c -17.182,-17.182 -25.772,-25.773 -35.708,-28.915 -8.373,-2.647 -17.359,-2.647 -25.731,0 -9.936,3.142 -18.526,11.733 -35.708,28.915 L 27.24,305.561 c 20.118,72.254 72.815,95.505 181.839,95.505 39.036,0 70.85,-2.98 96.531,-10.125 z"
         fill="#ffffff"
         data-original="#000000"
         class=""
         id="path2"
         style="fill:#6a859a;fill-opacity:1" /><path
         d="m 245.828,278.974 -26.093,26.093 85.875,85.875 c 40.45,-11.251 65.687,-32.832 79.979,-69.355 l -42.613,-42.613 c -17.182,-17.182 -25.773,-25.773 -35.708,-28.915 -8.373,-2.647 -17.359,-2.647 -25.732,0 -9.936,3.142 -18.527,11.733 -35.708,28.915 z"
         fill="#ffffff"
         data-original="#000000"
         class=""
         id="path4"
         style="fill:#6a859a;fill-opacity:1" /></g><path
       clip-rule="evenodd"
       d="m 34.134,209.066 c 0,-74.308 10.944,-115.869 35.009,-139.931 24.066,-24.063 65.63,-35.002 139.934,-35.002 9.425,0 17.067,-7.641 17.067,-17.067 C 226.144,7.64 218.502,0 209.077,0 134.058,0 79.616,10.394 45.008,44.998 10.4,79.602 0,134.042 0,209.066 c 0,39.785 3.069,73.316 10.797,101.073 11.123,39.947 32.031,68.137 66.311,85.495 33.025,16.721 76.806,22.498 131.968,22.498 39.708,0 73.278,-3.008 101.105,-10.75 45.073,-12.538 74.854,-37.549 91.298,-79.58 12.124,-30.985 16.653,-70.327 16.653,-118.737 0,-9.425 -7.639,-17.067 -17.065,-17.067 -9.427,0 -17.067,7.642 -17.067,17.067 0,32.352 -2.14,58.684 -6.673,80.126 l -22.78,-22.78 c -8.171,-8.171 -15.036,-15.038 -21.118,-20.186 -6.359,-5.385 -12.996,-9.903 -21.018,-12.439 -11.723,-3.708 -24.303,-3.708 -36.026,0 -8.021,2.537 -14.658,7.055 -21.018,12.439 -6.082,5.148 -12.947,12.015 -21.118,20.186 l -14.517,14.517 -35.853,-35.851 c -8.171,-8.171 -15.036,-15.038 -21.118,-20.186 -6.36,-5.385 -12.997,-9.903 -21.018,-12.439 -11.722,-3.708 -24.302,-3.708 -36.024,0 -8.021,2.537 -14.658,7.055 -21.018,12.439 -6.082,5.148 -12.947,12.015 -21.117,20.186 l -25.9,25.899 c -2.407,-17.739 -3.55,-38.234 -3.55,-61.91 z m 296.773,81.976 34.34,34.342 c -11.273,22.445 -28.45,37.056 -54.854,46.206 l -66.524,-66.524 14.027,-14.025 c 8.791,-8.794 14.658,-14.641 19.531,-18.765 4.715,-3.991 7.341,-5.34 9.254,-5.946 5.024,-1.589 10.415,-1.589 15.439,0 1.914,0.606 4.54,1.954 9.254,5.946 4.873,4.125 10.739,9.972 19.533,18.766 z m -59.898,89.436 C 253.247,382.876 232.741,384 209.076,384 155.216,384 118.137,378.15 92.528,365.184 70.623,354.091 55.88,337.15 46.592,310.345 l 40.636,-40.636 c 8.793,-8.794 14.66,-14.641 19.531,-18.765 4.714,-3.991 7.341,-5.34 9.255,-5.946 5.024,-1.589 10.415,-1.589 15.439,0 1.914,0.606 4.541,1.954 9.255,5.946 4.871,4.124 10.737,9.971 19.531,18.765 z"
       fill-rule="evenodd"
       fill="#ff2b67"
       data-original="#ff2b67"
       id="path8"
       style="fill:#6a859a;fill-opacity:1" /></g></svg>
